<?xml version="1.0" standalone="no"?>
<!DOCTYPE svg PUBLIC "-//W3C//DTD SVG 20010904//EN"
 "http://www.w3.org/TR/2001/REC-SVG-20010904/DTD/svg10.dtd">
<svg version="1.0" xmlns="http://www.w3.org/2000/svg"
 width="260.000000pt" height="260.000000pt" viewBox="0 0 260.000000 260.000000"
 preserveAspectRatio="xMidYMid meet">
<metadata>
Created by potrace 1.11, written by Peter Selinger 2001-2013
</metadata>
<g transform="translate(0.000000,260.000000) scale(0.100000,-0.100000)"
fill="#000000" stroke="none">
<path d="M2110 2565 c-7 -8 -49 -33 -94 -56 -85 -42 -173 -103 -217 -150 -15
-15 -30 -25 -33 -22 -3 4 -6 -1 -6 -11 0 -9 -4 -14 -10 -11 -5 3 -10 3 -10 -2
0 -4 -17 -27 -37 -49 -55 -59 -92 -104 -87 -104 5 0 -9 -18 -38 -51 -10 -10
-19 -22 -19 -26 -4 -20 -23 -53 -31 -53 -4 0 -8 -6 -8 -13 0 -7 -12 -36 -26
-65 -14 -29 -27 -58 -28 -64 -1 -7 -4 -17 -8 -23 -3 -5 -9 -24 -12 -41 l-7
-32 -39 19 c-21 11 -50 19 -64 19 -21 0 -24 5 -28 48 -3 26 -1 51 4 56 11 14
10 44 -2 51 -6 4 -18 1 -26 -6 -13 -10 -13 -8 -4 15 17 45 12 60 -45 160 -30
52 -55 99 -55 104 0 5 -9 21 -21 36 -11 14 -18 26 -14 26 3 0 -5 12 -19 26
-26 29 -55 27 -57 -3 0 -10 -2 -26 -4 -36 -2 -9 -6 -50 -10 -90 -9 -94 -8 -91
-20 -99 -6 -5 -5 -8 2 -8 20 0 4 -26 -17 -27 -14 -1 -30 14 -52 48 -18 27 -36
49 -40 49 -5 0 -8 5 -8 11 0 17 -184 196 -209 204 -12 3 -21 11 -21 17 0 6 -3
9 -6 6 -3 -4 -21 0 -40 8 -19 8 -39 12 -44 9 -6 -4 -10 -2 -10 3 0 12 -63 7
-89 -8 -26 -14 -66 -67 -79 -106 -12 -37 -13 -169 -1 -201 5 -13 6 -23 4 -23
-9 0 -110 73 -113 82 -2 4 -10 8 -18 8 -8 0 -14 5 -14 10 0 6 -5 10 -10 10 -6
0 -22 11 -36 23 -17 16 -34 22 -49 19 -30 -5 -25 -23 45 -157 29 -55 94 -181
145 -280 51 -99 104 -200 117 -225 29 -57 45 -73 63 -66 8 3 15 1 15 -4 0 -5
20 -6 44 -4 33 4 48 1 58 -11 52 -63 125 -115 162 -115 12 0 13 -5 7 -22 -5
-13 -7 -63 -6 -113 3 -114 -7 -146 -54 -171 -41 -22 -57 -50 -65 -114 -11 -88
-18 -114 -57 -196 -16 -33 -35 -86 -41 -118 -11 -50 -10 -63 5 -104 37 -97 37
-99 11 -137 -13 -20 -24 -40 -24 -45 0 -12 -63 -60 -78 -60 -7 0 -12 -4 -12
-10 0 -5 -7 -10 -15 -10 -8 0 -15 -4 -15 -10 0 -5 -4 -10 -10 -10 -18 0 -87
-63 -83 -78 0 -4 -3 -14 -8 -23 -4 -9 -5 -19 -2 -23 4 -3 8 -14 9 -24 6 -40
11 -56 21 -59 5 -2 34 24 64 57 106 120 151 161 180 163 10 1 19 5 19 10 0 5
7 7 15 4 8 -4 17 -2 20 3 3 4 23 11 44 15 46 8 55 22 36 56 -8 13 -17 31 -21
39 -4 8 -13 20 -20 25 -35 29 -20 121 33 208 45 71 44 66 46 197 2 58 5 110 9
115 3 6 5 24 3 42 -1 18 2 38 9 45 6 7 10 11 9 9 -4 -6 39 -73 59 -93 10 -10
18 -15 18 -10 0 4 4 2 8 -3 4 -6 19 -16 34 -24 19 -10 28 -24 33 -52 7 -40 56
-141 80 -165 7 -8 12 -24 9 -37 -4 -21 -14 -172 -18 -265 -1 -24 2 -46 6 -48
5 -3 5 -10 2 -16 -4 -6 3 -5 15 2 12 6 25 18 28 26 3 7 9 11 14 8 5 -3 9 0 9
6 0 6 10 21 23 33 32 31 102 126 121 165 9 18 29 38 44 44 103 43 136 62 180
105 80 79 135 193 140 293 2 24 5 46 6 48 2 2 15 -7 29 -20 50 -45 90 -71 127
-83 3 -1 12 -4 20 -8 8 -3 28 -9 44 -14 17 -5 30 -17 32 -29 2 -10 7 -39 12
-64 4 -25 5 -63 1 -85 -13 -78 -3 -136 40 -228 57 -122 58 -133 16 -211 -19
-36 -32 -71 -30 -78 4 -9 28 -14 70 -15 80 -2 130 -24 205 -92 30 -27 66 -53
79 -56 14 -3 41 -19 62 -35 39 -32 49 -31 44 3 -2 12 -6 42 -10 67 -8 60 -18
70 -97 104 -171 71 -240 163 -203 269 12 36 12 163 0 242 -3 22 -6 52 -5 67 0
16 -4 28 -9 28 -6 0 -8 8 -6 18 1 9 -3 35 -11 57 -21 61 -18 69 41 111 30 21
55 43 55 47 0 4 9 17 20 29 11 12 20 28 20 35 0 7 5 13 11 13 5 0 7 5 4 10 -3
6 -2 10 4 10 5 0 8 8 6 18 -1 9 0 22 4 27 25 44 12 195 -27 305 -3 8 -6 20 -7
25 -2 6 -14 35 -28 65 -16 35 -22 56 -15 59 6 2 22 16 35 30 27 30 125 169
122 173 -1 2 10 29 25 61 14 32 26 63 26 71 0 7 3 16 7 20 7 7 11 24 17 72 1
17 5 35 8 40 3 5 4 61 2 124 -7 231 -82 336 -225 317 -21 -3 -42 -1 -45 4 -8
13 -20 11 -34 -6z m-977 -474 c3 -13 0 -18 -12 -17 -9 2 -17 14 -18 30 -1 22
1 25 11 16 8 -6 16 -19 19 -29z"/>
</g>
</svg>
